<?xml version="1.0" encoding="UTF-8"?>
<svg width="250px" height="312px" viewBox="0 0 250 312" version="1.1" xmlns="http://www.w3.org/2000/svg" xmlns:xlink="http://www.w3.org/1999/xlink">
    <!-- Generator: Sketch 55.2 (78181) - https://sketchapp.com -->
    <title>Combined Shape</title>
    <desc>Created with Sketch.</desc>
    <defs>
        <linearGradient x1="0%" y1="50%" x2="100%" y2="50%" id="linearGradient-1">
            <stop stop-color="#0788DE" offset="0%"></stop>
            <stop stop-color="#116AB8" offset="100%"></stop>
        </linearGradient>
        <path d="M238.226,193.879 C252.965,208.619 252.965,232.598 238.221,247.34 C227.127,258.442 210.79,261.173 197.108,255.561 L146.334,306.338 C145.936,306.731 145.423,306.995 144.865,307.077 L125.034,310.086 C124.258,310.202 123.48,309.97 122.891,309.456 C122.309,308.946 121.98,308.196 122.000052,307.416 L122.482,285.521 C122.496,284.84 122.766,284.192 123.249,283.713 L129.828,277.136 C130.352,276.598 131.091,276.325 131.837,276.366 L139.458,276.797 L138.079,270.604 C137.888,269.727 138.154,268.807 138.791,268.166 L143.589,263.369 C144.246,262.722 145.191,262.451 146.094,262.674 L157.11,265.402 L154.263,254.548 C154.024,253.637 154.288,252.669 154.951,252.008 L175.354,231.606 C171.446,218.68 174.581,204.074 184.772,193.879 C199.507,179.15 223.49,179.144 238.226,193.879 Z M230.269,241.236 C241.131,230.371 241.131,212.705 230.269,201.844 C219.404,190.975 201.732,190.975 190.87,201.837 L189.939,202.768 L229.335,242.174 L230.269,241.236 Z M5.467,87.497 C2.933,86.944 0.953,84.958 0.4,82.436 C-0.156,79.901 0.854,77.232 2.921,75.665 C3.419,75.287 3.961,74.989 4.516,74.768 C6.162,73.812 10.943,70.475 14.983,65.131 L16.535,63.071 C31.303,43.426 65.897,-2.583 118.597,0.115 C118.646,0.115 118.689,0.115 118.737,0.123 C147.331,2.179 170.407,16.452 187.326,42.54 C200.422,62.737 205.823,84.214 207.855,92.306 C208.071,93.148 208.31,94.101 208.43,94.532 C208.584,94.887 208.707,95.25 208.792,95.633 C210.261,101.976 212.724,109.083 214.035,110.771 C216.756,112.975 217.309,116.946 215.236,119.819 C213.939,121.613 211.903,122.57 209.846,122.57 C208.497,122.57 207.132,122.166 205.961,121.319 C201.225,117.898 197.933,107.5 195.976,99.157 C195.681,98.344 195.415,97.274 194.977,95.543 C182.147,44.535 155.478,16.123 117.853,13.378 C72.227,11.093 40.644,53.109 27.152,71.048 L25.571,73.144 C21.969,77.906 18.067,81.323 15.429,83.356 C9.483,87.915 7.554,87.949 5.467,87.497 Z M171.839,112.963 C161.854,137.914 131.245,161.411 107.318,176.723 C91.247,187.013 50.721,212.306 21.723,224.715 C20.867,225.074 19.981,225.245 19.108,225.245 C16.537,225.245 14.08,223.736 13,221.211 C11.56,217.836 13.123,213.935 16.498,212.498 C44.592,200.489 84.363,175.651 100.153,165.532 C131.659,145.361 152.732,124.945 159.502,108.034 C163.137,98.942 163.383,89.894 160.183,83.202 C157.514,77.612 152.459,73.649 145.184,71.423 C132.824,67.639 116.977,79.396 106.262,91.669 C106.039,91.927 80.098,119.53 51.492,137.045 C50.609,137.577 30.352,149.734 8.421,155.694 C4.879,156.665 1.228,154.573 0.271,151.034 C-0.693,147.501 1.392,143.84 4.932,142.883 C25.088,137.388 44.393,125.813 44.586,125.698 C70.959,109.549 96.07,83.138 96.295,82.885 C113.939,62.675 133.195,53.86 149.082,58.719 C159.898,62.035 167.887,68.514 172.167,77.468 C176.973,87.501 176.849,100.446 171.839,112.963 Z M64.854,63.377 C80.679,45.943 101.217,30.928 125.227,28.443 C128.842,28.065 131.873,31.742 131.873,35.087 C131.873,38.985 128.828,41.353 125.227,41.728 C123.752,41.881 123.317,41.928 121.341,42.339 C115.38,43.576 110.464,45.342 105.568,47.861 C100.386,50.525 95.454,53.671 90.829,57.218 C90.567,57.42 89.535,58.238 89.4,58.353 C88.873,58.777 88.345,59.208 87.826,59.646 C86.803,60.508 85.79,61.376 84.794,62.274 C82.878,63.993 81.004,65.749 79.192,67.571 C75.869,70.911 72.695,74.388 69.716,78.036 C62.373,87.051 54.391,95.29 45.112,102.342 C40.354,105.96 35.212,108.618 30.029,111.561 C23.9,115.045 17.743,118.542 10.952,120.589 C7.487,121.63 3.726,119.373 2.783,115.942 C1.806,112.387 3.957,108.817 7.42,107.776 C9.661,107.1 11.382,106.462 13.379,105.492 C19.184,102.667 24.892,99.416 30.499,96.206 C35.779,93.167 39.403,90.275 43.881,86.232 C48.238,82.297 52.404,78.127 56.223,73.666 C59.136,70.262 61.844,66.695 64.854,63.377 Z M13.158,190.567 L12.921,190.656 C12.178,190.923 11.41,191.053 10.657,191.053 C7.976,191.053 5.45,189.417 4.444,186.761 C3.143,183.333 4.871,179.5 8.302,178.193 C8.365,178.172 8.543,178.111 8.841,178.015 C22.603,173.275 93.225,146.933 132.361,92.074 C134.493,89.084 138.644,88.395 141.632,90.522 C144.613,92.659 145.311,96.805 143.179,99.791 C101.684,157.951 27.59,185.619 13.158,190.567 Z M124.305,205.324 C118.092,206.398 98.877,219.067 83.442,229.243 C64.323,241.834 46.269,253.736 36.018,256.501 C35.443,256.658 34.857,256.733 34.291,256.733 C31.362,256.733 28.681,254.786 27.878,251.812 C26.929,248.273 29.028,244.632 32.57,243.667 C40.745,241.469 59.55,229.078 76.132,218.147 C99.137,202.987 113.707,193.672 122.052,192.228 C132.851,190.365 146.032,199.496 161.261,210.344 C159.841,215.156 159.163,220.182 159.297,225.244 C157.812,224.193 156.323,223.14 154.845,222.086 C143.75,214.187 129.945,204.359 124.305,205.324 Z M139.811,255.582 C139.4,255.632 139.014,255.746 138.617,255.839 C130.9,251.253 122.711,246.797 119.809,246.996 C113.168,248.145 82.555,270.499 71.029,278.91 C67.442,281.525 64.342,283.79 62.132,285.351 C60.969,286.175 59.634,286.569 58.306,286.569 C56.224,286.569 54.17,285.591 52.87,283.757 C50.757,280.766 51.472,276.621 54.465,274.503 C56.588,273.001 59.648,270.763 63.198,268.176 C92.146,247.037 109.402,235.309 117.615,233.889 C124.36,232.726 133.391,237.206 146.464,245.063 L143.551,247.971 C141.471,250.052 140.181,252.748 139.811,255.582 Z M80.01,300.048 C83.602,296.346 102.112,277.73 113.736,275.724 C114.509,275.587 115.281,275.522 116.049,275.471 L111.874,279.646 C109.449,282.052 108.075,285.269 108.005,288.68 L107.901,293.184 C102.206,297.256 95.145,303.518 89.553,309.288 C88.252,310.636 86.514,311.314 84.779,311.314 C83.122,311.314 81.451,310.691 80.164,309.445 C77.529,306.893 77.459,302.684 80.01,300.048 Z M206.598,170.027 C191.444,163.631 178.759,154.295 175.918,137.068 C174.536,128.689 187.342,125.097 188.728,133.536 C189.795,140.013 192.184,145.615 197.311,149.881 C201.975,153.763 207.765,156.221 213.302,158.563 C216.635,159.973 217.34,164.833 215.684,167.652 C213.678,171.075 209.935,171.444 206.598,170.027 Z M163.585,162.054 C167.123,170.791 173.775,177.929 181.428,183.38 C178.557,185.228 175.846,187.37 173.372,189.841 C172.578,190.635 171.887,191.504 171.161,192.339 C162.273,185.195 155.033,176.091 150.772,165.592 C149.41,162.231 152.226,158.296 155.412,157.418 C159.211,156.371 162.223,158.706 163.585,162.054 Z" id="path-2"></path>
        <filter x="-0.8%" y="-0.6%" width="101.6%" height="101.3%" filterUnits="objectBoundingBox" id="filter-3">
            <feGaussianBlur stdDeviation="1.5" in="SourceAlpha" result="shadowBlurInner1"></feGaussianBlur>
            <feOffset dx="0" dy="1" in="shadowBlurInner1" result="shadowOffsetInner1"></feOffset>
            <feComposite in="shadowOffsetInner1" in2="SourceAlpha" operator="arithmetic" k2="-1" k3="1" result="shadowInnerInner1"></feComposite>
            <feColorMatrix values="0 0 0 0 0   0 0 0 0 0   0 0 0 0 0  0 0 0 0.5 0" type="matrix" in="shadowInnerInner1"></feColorMatrix>
        </filter>
    </defs>
    <g id="Symbols" stroke="none" stroke-width="1" fill="none" fill-rule="evenodd">
        <g id="fingerprint-with-key" fill-rule="nonzero">
            <g id="Combined-Shape">
                <g>
                    <use fill="url(#linearGradient-1)" xlink:href="#path-2"></use>
                    <use fill="black" fill-opacity="1" filter="url(#filter-3)" xlink:href="#path-2"></use>
                </g>
            </g>
        </g>
    </g>
</svg>