<?xml version="1.0" standalone="no"?>
<!DOCTYPE svg PUBLIC "-//W3C//DTD SVG 20010904//EN"
 "http://www.w3.org/TR/2001/REC-SVG-20010904/DTD/svg10.dtd">
<svg version="1.0" xmlns="http://www.w3.org/2000/svg"
 width="624.000000pt" height="624.000000pt" viewBox="0 0 624.000000 624.000000"
 preserveAspectRatio="xMidYMid meet">
<metadata>
Created by potrace 1.11, written by Peter Selinger 2001-2013
</metadata>
<g transform="translate(0.000000,624.000000) scale(0.100000,-0.100000)"
fill="#000000" stroke="none">
<path d="M2738 6235 c-2 -2 -26 -6 -53 -9 -260 -30 -617 -170 -822 -322 -17
-13 -34 -24 -37 -24 -3 0 -14 -6 -23 -14 -10 -8 -65 -52 -123 -97 -58 -45
-168 -146 -245 -223 -144 -145 -168 -170 -268 -291 -74 -89 -66 -78 -177 -225
-106 -140 -192 -228 -274 -280 -85 -54 -110 -116 -75 -187 36 -74 112 -94 193
-52 49 25 146 99 194 149 49 49 126 140 131 154 2 6 7 13 11 16 3 3 35 43 70
90 82 109 207 257 284 339 113 119 121 127 271 260 74 66 295 221 315 221 5 0
10 4 10 9 0 5 16 15 35 21 19 6 35 16 35 21 0 5 6 9 12 9 7 0 40 13 73 29 61
29 138 59 210 82 44 14 45 14 95 24 19 3 51 10 71 15 77 21 319 30 404 15 22
-3 51 -8 65 -10 220 -31 470 -145 661 -301 157 -128 259 -250 417 -499 13 -22
136 -267 138 -275 0 -3 8 -23 18 -45 42 -95 142 -398 160 -485 13 -61 69 -259
91 -315 62 -165 130 -245 208 -245 108 0 172 119 111 206 -41 58 -55 88 -84
176 -17 50 -32 101 -34 112 -2 12 -11 45 -19 74 -9 28 -13 52 -9 52 3 0 1 5
-6 12 -7 7 -12 21 -12 31 0 47 -106 361 -177 527 -48 112 -139 289 -182 355
-14 22 -30 47 -36 56 -33 53 -117 167 -165 224 -33 40 -206 212 -249 249 -141
120 -437 277 -568 302 -12 2 -35 9 -50 15 -15 6 -62 17 -103 24 -41 8 -88 17
-105 21 -33 6 -381 15 -387 9z"/>
<path d="M3046 5663 c-1 -1 -13 -4 -26 -6 -54 -10 -90 -20 -230 -62 -5 -2 -16
-6 -105 -43 -119 -48 -279 -144 -405 -242 -190 -148 -314 -273 -525 -530 -102
-124 -291 -303 -417 -392 -131 -94 -456 -269 -556 -299 -98 -29 -139 -126 -87
-205 46 -71 113 -77 235 -22 25 12 51 21 58 21 6 0 12 4 12 9 0 4 5 8 12 8 20
0 432 231 482 271 225 177 333 284 547 539 77 93 294 310 308 310 6 0 11 4 11
8 0 4 33 33 73 63 39 29 74 56 77 59 6 6 20 15 110 69 122 73 249 132 310 145
14 3 41 10 60 16 32 10 64 16 130 24 90 12 150 80 136 154 -8 39 -45 89 -75
101 -22 10 -126 13 -135 4z"/>
<path d="M3237 5066 c-112 -30 -302 -122 -329 -161 -5 -6 -8 -6 -8 0 0 7 -3 7
-8 0 -4 -6 -34 -30 -67 -55 -33 -25 -163 -148 -290 -275 -256 -256 -290 -289
-467 -437 -68 -56 -134 -113 -148 -125 -14 -13 -28 -23 -31 -23 -3 0 -15 -8
-27 -17 -11 -10 -30 -26 -41 -35 -16 -14 -131 -94 -271 -188 -58 -40 -297
-164 -421 -219 -88 -39 -327 -129 -347 -130 -18 -2 -99 -33 -112 -44 -68 -54
-60 -170 15 -217 25 -16 93 -20 125 -8 14 5 33 11 43 13 28 6 231 77 242 85 6
4 40 18 77 31 38 13 68 27 68 31 0 5 7 8 16 8 18 0 337 160 342 172 2 4 8 8
14 8 9 0 256 156 268 170 3 3 39 30 80 60 41 30 77 57 80 60 3 3 39 32 80 64
74 59 174 144 259 221 129 117 182 167 370 356 212 211 284 270 414 339 175
91 299 98 453 24 90 -44 163 -114 203 -196 39 -78 42 -92 45 -198 9 -258 -125
-512 -434 -820 -98 -99 -279 -257 -355 -312 -5 -4 -26 -21 -46 -38 -20 -16
-41 -30 -47 -30 -6 0 -12 -4 -14 -8 -4 -12 -115 -92 -127 -92 -5 0 -11 -4 -13
-8 -2 -7 -217 -152 -294 -199 -10 -6 -75 -47 -144 -90 -68 -43 -132 -82 -142
-88 -9 -5 -99 -59 -200 -120 -101 -60 -192 -115 -203 -121 -11 -6 -94 -53
-185 -104 -186 -105 -495 -264 -644 -330 -105 -48 -132 -71 -142 -127 -14 -74
37 -146 111 -156 49 -7 94 12 400 166 110 55 210 105 222 111 13 6 23 14 23
19 0 4 5 7 10 7 8 0 136 67 190 100 8 5 117 69 243 142 125 73 246 145 270
160 23 15 49 31 57 35 8 4 63 37 122 75 59 37 110 68 113 68 3 0 11 4 18 10 7
5 107 73 222 149 116 77 219 148 230 158 11 10 37 29 58 42 20 12 37 27 37 32
0 5 5 9 11 9 6 0 16 6 23 13 7 6 30 26 52 42 193 151 422 371 524 505 19 24
40 50 47 57 26 29 122 182 157 251 138 275 156 577 47 806 -81 168 -233 295
-441 366 -99 34 -267 37 -383 6z"/>
<path d="M3357 4452 c-46 -4 -64 -22 -210 -207 -120 -153 -355 -393 -517 -529
-63 -53 -119 -100 -125 -104 -12 -8 -95 -73 -110 -85 -5 -4 -41 -30 -80 -57
-38 -28 -74 -53 -80 -58 -60 -48 -475 -302 -493 -302 -5 0 -15 -7 -22 -15 -7
-8 -16 -13 -20 -10 -5 3 -12 1 -15 -5 -20 -32 -529 -266 -804 -369 -73 -28
-140 -59 -147 -68 -40 -54 -41 -131 -1 -175 48 -55 89 -60 193 -24 101 35 504
201 534 221 8 5 17 10 20 10 12 2 330 165 368 189 23 14 42 23 42 19 0 -5 4
-3 8 3 4 6 23 19 42 29 59 30 345 208 348 217 2 4 8 8 13 8 7 0 77 49 279 195
52 38 105 79 115 89 6 6 46 40 90 76 190 155 421 388 567 572 27 35 58 73 69
86 10 12 19 25 19 27 0 3 9 15 20 27 51 55 61 129 25 184 -22 33 -82 60 -128
56z"/>
<path d="M4243 3658 c-40 -10 -102 -71 -104 -101 -7 -110 57 -282 146 -392 67
-83 117 -128 205 -186 97 -65 264 -145 315 -152 78 -11 145 47 145 126 0 72
-19 92 -154 156 -252 119 -336 206 -386 398 -29 110 -38 129 -68 143 -34 17
-59 19 -99 8z"/>
<path d="M3719 3087 c-41 -19 -61 -39 -80 -81 -17 -38 -17 -41 2 -87 35 -91
119 -232 179 -304 54 -65 182 -193 204 -205 22 -11 27 -9 64 32 23 24 66 62
96 84 30 21 55 42 56 46 0 3 -19 21 -42 39 -65 50 -181 172 -220 231 -20 29
-52 87 -73 128 -41 82 -72 115 -118 124 -36 7 -36 7 -68 -7z"/>
<path d="M4849 2586 c-2 -2 -39 -6 -81 -9 -228 -18 -442 -157 -570 -370 -31
-51 -75 -157 -79 -189 0 -4 -6 -31 -12 -60 -19 -85 -12 -257 13 -323 9 -23 -5
-40 -198 -232 -115 -115 -211 -215 -214 -224 -4 -9 4 -57 17 -105 12 -49 25
-101 29 -115 l6 -27 -113 29 c-61 16 -118 29 -125 29 -7 0 -42 -30 -78 -66
l-65 -66 7 -46 c4 -26 11 -58 16 -71 5 -13 6 -26 3 -30 -3 -3 -44 -4 -91 -2
l-85 2 -79 -80 c-66 -67 -80 -86 -81 -113 0 -18 -2 -126 -5 -240 -5 -245 -6
-244 85 -234 31 3 81 10 111 15 30 5 71 12 90 15 19 2 69 9 110 15 l75 12 514
513 513 514 55 -19 c29 -10 73 -21 96 -25 49 -9 218 -9 264 -1 239 43 439 190
547 404 30 60 56 134 63 178 3 17 8 48 12 70 17 94 2 232 -39 350 -22 64 -86
179 -123 220 -147 162 -307 251 -488 270 -29 3 -63 8 -75 10 -12 3 -23 3 -25
1z m89 -230 c126 -29 222 -85 306 -178 184 -203 191 -502 16 -723 -19 -24 -40
-46 -46 -49 -6 -2 -188 172 -403 387 l-392 392 46 42 c100 88 245 141 377 137
40 -1 83 -5 96 -8z"/>
<path d="M2993 2376 c-116 -38 -301 -141 -623 -350 -201 -130 -436 -285 -447
-295 -7 -6 -15 -11 -18 -11 -3 0 -42 -24 -88 -53 -237 -154 -414 -253 -522
-292 -71 -27 -92 -44 -111 -93 -15 -37 -15 -48 -4 -83 24 -72 102 -108 180
-84 57 17 169 70 275 129 69 38 340 203 360 218 6 5 73 49 150 100 77 50 185
121 240 157 55 36 105 68 110 70 6 2 24 15 41 28 17 12 36 23 42 23 7 0 12 5
12 10 0 6 7 10 15 10 8 0 15 4 15 8 0 5 17 18 38 29 20 11 89 52 152 90 224
135 307 164 385 133 59 -22 195 -94 195 -102 0 -4 5 -8 10 -8 9 0 219 -137
230 -150 5 -6 170 -120 174 -120 1 0 2 17 2 38 1 43 11 135 19 172 20 88 25
79 -77 151 -51 37 -118 82 -148 100 -30 19 -57 37 -60 41 -10 13 -243 128
-260 128 -9 0 -20 3 -24 7 -10 10 -33 14 -116 18 -58 3 -91 -2 -147 -19z"/>
<path d="M2975 1563 c-111 -19 -461 -225 -751 -442 -12 -9 -32 -23 -44 -31
-12 -8 -51 -36 -87 -63 -35 -26 -68 -47 -73 -47 -4 0 -10 -3 -12 -8 -1 -4 -32
-28 -68 -54 -36 -26 -69 -51 -75 -55 -5 -5 -50 -37 -98 -72 -87 -63 -105 -85
-112 -144 -9 -66 60 -137 132 -137 29 0 55 12 108 47 39 26 79 56 89 65 11 10
23 18 26 18 4 0 18 10 31 21 13 12 35 29 49 38 22 14 98 68 125 89 167 128
601 417 707 471 71 36 92 42 121 37 39 -7 202 -85 291 -139 58 -35 86 -38 86
-10 0 30 40 99 79 138 38 37 52 65 33 65 -4 0 -31 15 -60 34 -28 19 -52 33
-52 30 0 -3 -12 3 -27 14 -52 35 -200 102 -264 118 -65 17 -118 23 -154 17z"/>
<path d="M2850 716 c-19 -5 -37 -12 -40 -15 -3 -3 -27 -16 -54 -29 -49 -23
-179 -109 -232 -154 -173 -145 -306 -274 -330 -319 -26 -52 -3 -130 50 -164
30 -20 96 -26 123 -12 12 7 59 48 105 92 73 70 125 116 216 193 12 11 38 30
57 43 32 22 35 28 36 74 1 117 19 160 98 243 28 29 51 55 51 57 0 7 -40 2 -80
-9z"/>
</g>
</svg>
